# This file uses centimeters as units for non-parametric coordinates.

mtllib chair_01.mtl
g default
v 15.369353 0.500000 0.931542
v 15.369353 0.500000 -0.931543
v 10.075390 -0.197745 2.516956
v 10.398424 -0.257399 2.794628
v 10.477798 0.079474 2.520872
v 14.429825 0.789722 2.526579
v 14.026537 0.489943 2.442189
v 14.851508 0.500000 2.794628
v 10.477798 0.079474 -2.520872
v 10.398424 -0.257399 -2.794628
v 10.075390 -0.197745 -2.516956
v 14.429825 0.789722 -2.526579
v 14.851508 0.500000 -2.794628
v 14.026537 0.489943 -2.442189
v 10.245947 -0.530994 2.794628
v 9.929184 -0.500000 2.476454
v 15.492494 -0.500000 2.470382
v 15.193161 -0.500000 2.794628
v 15.191799 0.500000 2.794628
v 15.492464 0.500000 2.469998
v 10.108748 -0.055131 0.931542
v 10.459650 0.212877 0.931542
v 9.929184 -0.500000 -2.476454
v 10.245947 -0.530994 -2.794628
v 15.191799 0.500000 -2.794628
v 15.492464 0.500000 -2.469998
v 15.193161 -0.500000 -2.794628
v 15.492494 -0.500000 -2.470382
v 13.954129 0.624834 0.931542
v 14.272464 0.930400 0.931542
v 15.758556 7.367012 2.493354
v 15.411308 7.076355 2.501914
v 15.746886 7.062136 2.794628
v 15.758556 7.367012 -2.493354
v 15.746886 7.062136 -2.794628
v 15.411308 7.076355 -2.501914
v 15.254047 7.080406 0.931542
v 15.590387 7.367012 0.931542
v 16.236696 7.367012 2.469046
v 16.217291 7.048460 2.794628
v 16.511698 7.038834 2.463541
v 16.511698 7.038834 -2.463541
v 16.217291 7.048460 -2.794628
v 16.236696 7.367012 -2.469046
v 16.100675 7.367012 0.931542
v 16.387995 7.031726 0.931542
v 13.655356 -0.500000 -2.417776
v 14.045055 -0.500000 -2.794628
v 11.415187 -0.645400 -2.794628
v 11.792271 -0.682296 -2.421181
v 14.045055 -0.500000 2.794628
v 13.655356 -0.500000 2.417776
v 11.792271 -0.682296 2.421181
v 11.415187 -0.645400 2.794628
v 10.108748 -0.055131 -0.931543
v 10.459650 0.212877 -0.931543
v 13.954105 0.624831 -0.931543
v 14.272468 0.930425 -0.931543
v 15.254047 7.080406 -0.931543
v 15.590387 7.367012 -0.931543
v 16.100675 7.367012 -0.931543
v 16.387995 7.031726 -0.931543
v 9.929184 -0.500000 1.252441
v 10.066976 -0.158618 0.931542
v 10.267120 -0.533066 0.931542
v 10.267120 -0.533066 -0.931543
v 10.066976 -0.158618 -0.931543
v 9.929184 -0.500000 -1.252441
v 15.057667 -0.500000 0.931542
v 15.397006 -0.314526 1.277097
v 15.397006 -0.314526 -1.277097
v 15.057667 -0.500000 -0.931543
v 11.792271 -0.682296 -1.247527
v 12.057627 -0.656332 -0.931543
v 11.792271 -0.682296 -0.664920
v 11.484222 -0.652155 -0.931543
v 10.929140 -3.831982 -2.100250
v 10.629697 -3.832207 -1.800692
v 10.575123 -4.111230 -2.155175
v 10.020605 -4.111230 -2.177739
v 10.034088 -3.824405 -1.802534
v 9.738884 -3.793888 -2.123104
v 10.042276 -4.111230 -2.688020
v 9.738802 -3.795305 -2.673917
v 10.055939 -3.795186 -2.990921
v 10.552735 -4.111230 -2.709867
v 10.609567 -3.793407 -2.989808
v 10.930862 -3.825696 -2.695231
v 14.908098 -4.111230 -2.709628
v 14.532361 -3.824577 -2.695720
v 14.853134 -3.793725 -2.990834
v 13.967440 -0.500000 -0.931543
v 13.655356 -0.500000 -0.664899
v 13.389979 -0.525966 -0.931543
v 13.655356 -0.500000 -1.243489
v 14.833692 -3.830174 -1.804046
v 14.533894 -3.830385 -2.103729
v 14.886671 -4.111230 -2.156373
v 15.338623 -4.111230 -2.689549
v 15.346941 -3.788545 -2.990525
v 15.644885 -3.789778 -2.669260
v 15.319143 -4.111230 -2.176362
v 15.601130 -3.801105 -2.116583
v 15.286402 -3.830310 -1.804081
v 13.655356 -0.500000 1.243489
v 13.389979 -0.525966 0.931542
v 13.655356 -0.500000 0.664898
v 13.967440 -0.500000 0.931542
v 14.886671 -4.111230 2.156373
v 14.533894 -3.830385 2.103728
v 14.833692 -3.830174 1.804045
v 14.853134 -3.793725 2.990834
v 14.532361 -3.824577 2.695720
v 14.908098 -4.111230 2.709628
v 15.319143 -4.111230 2.176361
v 15.286402 -3.830310 1.804081
v 15.601130 -3.801105 2.116583
v 15.338623 -4.111230 2.689549
v 15.644885 -3.789778 2.669260
v 15.346941 -3.788545 2.990525
v 10.020605 -4.111230 2.177739
v 9.738884 -3.793888 2.123104
v 10.034088 -3.824405 1.802534
v 10.055939 -3.795186 2.990921
v 9.738802 -3.795305 2.673917
v 10.042276 -4.111230 2.688020
v 11.484222 -0.652155 0.931542
v 11.792271 -0.682296 0.664919
v 12.057627 -0.656332 0.931542
v 11.792271 -0.682296 1.247527
v 10.575123 -4.111230 2.155175
v 10.629697 -3.832207 1.800691
v 10.929140 -3.831982 2.100250
v 10.552735 -4.111230 2.709867
v 10.930862 -3.825696 2.695231
v 10.609567 -3.793407 2.989808
v 14.048069 0.363348 2.794628
v 14.882611 0.727941 2.794628
v 14.882611 0.727941 -2.794628
v 14.048069 0.363348 -2.794628
vt 0.470202 0.833333
vt 0.390116 0.916667
vt 0.359679 0.250000
vt 0.292017 0.250000
vt 0.362580 0.143666
vt 0.375000 0.000000
vt 0.375000 0.500000
vt 0.375000 0.441417
vt 0.375000 0.606709
vt 0.375000 0.764231
vt 0.389168 1.000000
vt 0.625000 0.985497
vt 0.610451 0.000000
vt 0.623839 0.000000
vt 0.639520 0.250000
vt 0.291667 0.250000
vt 0.208333 0.250000
vt 0.625000 0.485478
vt 0.623839 0.750000
vt 0.610579 0.250000
vt 0.588917 0.263476
vt 0.575642 0.486912
vt 0.588917 0.486524
vt 0.610579 0.500000
vt 0.625000 0.264809
vt 0.610391 0.485437
vt 0.541667 0.999986
vt 0.541667 0.000000
vt 0.441467 0.000000
vt 0.458333 0.000000
vt 0.458333 1.000000
vt 0.375000 0.931020
vt 0.291667 0.000000
vt 0.208333 0.000000
vt 0.625000 0.916667
vt 0.708333 0.000000
vt 0.791667 0.000000
vt 0.625000 0.816539
vt 0.444555 0.833333
vt 0.458333 0.771833
vt 0.436295 0.833333
vt 0.392295 0.833333
vt 0.375000 0.813876
vt 0.375000 0.773336
vt 0.393313 0.750000
vt 0.434031 0.750000
vt 0.436259 0.772075
vt 0.561763 0.750000
vt 0.599972 0.750000
vt 0.566735 0.772092
vt 0.541667 0.815462
vt 0.565199 0.812818
vt 0.600434 0.833333
vt 0.625000 0.773654
vt 0.625000 0.814387
vt 0.601717 0.811347
vt 0.562208 0.916667
vt 0.600434 0.916667
vt 0.565199 0.937182
vt 0.541667 0.978141
vt 0.566735 0.977908
vt 0.599972 1.000000
vt 0.625000 0.935612
vt 0.625000 0.976346
vt 0.600157 0.976430
vt 0.392295 0.916667
vt 0.397088 0.938754
vt 0.375000 0.976664
vt 0.398683 0.976317
vt 0.434031 1.000000
vt 0.436295 0.916667
vt 0.458333 0.934340
vt 0.458333 0.978167
vt 0.436259 0.977925
vt 0.595169 0.250000
vt 0.389168 0.000000
vt 0.559097 0.000000
vt 0.610389 0.250000
vt 0.387707 0.416667
vt 0.390298 0.634610
vt 0.610451 0.750000
vt 0.441467 0.750000
vt 0.437907 0.812907
vt 0.397088 0.811246
vt 0.398683 0.773683
vt 0.860497 0.000000
vt 0.860480 0.250000
vt 0.139232 0.000000
vt 0.208333 0.124987
vt 0.137420 0.143666
vt 0.588218 0.416667
vt 0.575642 0.416667
vt 0.589443 0.250000
vt 0.625000 0.485191
vt 0.625000 0.416667
vt 0.610390 0.500000
vt 0.595169 0.500000
vt 0.589443 0.500000
vt 0.600157 0.773570
vt 0.388010 0.262245
vt 0.561943 0.333333
vt 0.575642 0.333333
vt 0.575642 0.263088
vt 0.610302 0.333333
vt 0.610391 0.264563
vt 0.625000 0.264522
vt 0.639503 0.000000
vt 0.692877 0.046369
vt 0.601717 0.938653
vt 0.458333 0.983297
vt 0.541667 0.930620
vt 0.437907 0.937093
vt 0.208333 0.162876
vt 0.387707 0.333333
vt 0.561942 0.416667
vt 0.575642 0.416667
vt 0.575642 0.333333
vt 0.610302 0.416667
vt 0.588218 0.333333
vt 0.625000 0.333333
vt 0.625000 0.416667
vt 0.625000 0.333333
vt 0.807123 0.046369
vt 0.791667 0.250000
vt 0.708333 0.250000
vt 0.390115 0.833333
vt 0.375000 0.818980
vt 0.389168 0.750000
vt 0.458333 0.766704
vt 0.458333 0.815660
vt 0.541667 0.819380
vt 0.541667 0.771859
vt 0.559097 0.750000
vt 0.625000 0.764503
vt 0.609846 0.833333
vt 0.562208 0.833333
vt 0.541667 0.983144
vt 0.541667 0.934538
vt 0.556840 0.916667
vt 0.625000 0.933460
vt 0.610451 1.000000
vt 0.559097 1.000000
vt 0.561763 1.000000
vt 0.375000 0.985769
vt 0.375000 0.936124
vt 0.444555 0.916667
vt 0.458333 0.930800
vt 0.441467 1.000000
vt 0.393313 1.000000
vt 0.291667 0.124987
vt 0.360768 0.000000
vt 0.291667 0.162876
vt 0.458333 0.819200
vt 0.541667 0.766855
vt 0.556840 0.833333
vt 0.609846 0.916667
vt 0.306020 0.000000
vt 0.292175 0.001524
vt 0.207825 0.001524
vt 0.193980 0.000000
vt 0.458333 0.845259
vt 0.541667 0.845260
vt 0.529797 0.833333
vt 0.529797 0.916667
vt 0.541667 0.904740
vt 0.458333 0.904741
vt 0.470202 0.916667
vt 0.390298 0.115390
vt 0.575642 0.261989
vt 0.558243 0.265908
vt 0.388010 0.487755
vt 0.558243 0.484092
vt 0.575642 0.488005
vt 0.561126 0.231164
vt 0.596759 0.254967
vt 0.596789 0.494976
vt 0.558205 0.524287
vn 0.010409 -0.999946 -0.000000
vn 0.031114 -0.792453 -0.609139
vn -0.414916 -0.692853 -0.589745
vn -0.414916 -0.692853 0.589745
vn 0.031115 -0.792453 0.609139
vn 0.010409 -0.999946 -0.000000
vn 0.095565 -0.995423 -0.000000
vn 0.095565 -0.995423 0.000000
vn 0.096473 -0.995336 0.000000
vn 0.055465 -0.998461 0.000000
vn 0.055465 -0.998461 0.000000
vn 0.096473 -0.995336 -0.000000
vn -0.793428 0.594792 0.129212
vn -0.179303 0.957935 0.224079
vn -0.164120 0.985521 0.042582
vn -0.697592 0.715897 0.029290
vn -0.036544 0.108583 0.993416
vn -0.971430 0.121040 0.204140
vn -0.174468 0.038727 0.983901
vn -0.170546 0.969307 0.177080
vn -0.897782 0.204383 0.390148
vn -0.980419 0.188998 0.055308
vn -0.194906 0.979936 0.041678
vn -0.179303 0.957935 -0.224079
vn -0.793427 0.594792 -0.129212
vn -0.697592 0.715897 -0.029290
vn -0.164120 0.985521 -0.042582
vn -0.036544 0.108583 -0.993416
vn -0.174468 0.038727 -0.983901
vn -0.971430 0.121040 -0.204140
vn -0.897776 0.204389 -0.390159
vn -0.170549 0.969307 -0.177081
vn -0.194906 0.979936 -0.041677
vn -0.980420 0.188994 -0.055307
vn -0.966631 0.020973 0.255313
vn -0.259687 0.021453 0.965455
vn 0.988888 0.044373 0.141886
vn 0.183741 0.035840 0.982321
vn 0.272118 0.025281 0.961932
vn 0.984466 0.010192 0.175281
vn 0.985757 -0.136402 0.098378
vn 0.280437 -0.037857 0.959126
vn 0.988831 -0.110399 0.100124
vn 0.388545 -0.025196 0.921085
vn -0.259687 0.021453 -0.965455
vn -0.966631 0.020973 -0.255313
vn 0.280437 -0.037857 -0.959126
vn 0.985757 -0.136402 -0.098378
vn 0.988888 0.044373 -0.141886
vn 0.183741 0.035840 -0.982321
vn 0.388545 -0.025196 -0.921085
vn 0.988831 -0.110399 -0.100124
vn 0.984466 0.010192 -0.175281
vn 0.272118 0.025281 -0.961932
vn -0.286606 0.949023 0.131195
vn -0.341556 0.085727 0.935943
vn 0.365314 0.927810 0.075595
vn -0.944346 0.188334 0.269706
vn -0.330212 0.943770 0.016081
vn -0.978672 0.199745 0.047985
vn -0.286606 0.949023 -0.131195
vn -0.944346 0.188334 -0.269706
vn -0.978672 0.199745 -0.047985
vn -0.330212 0.943770 -0.016081
vn -0.341556 0.085727 -0.935943
vn 0.365314 0.927810 -0.075595
vn 0.993615 -0.106794 -0.036385
vn 0.382845 0.923694 -0.014814
vn 0.382845 0.923694 0.014814
vn 0.993615 -0.106794 0.036385
vn -0.593034 -0.781365 -0.194371
vn -0.109772 -0.047794 -0.992807
vn -0.304722 -0.056576 -0.950760
vn -0.933678 -0.276496 -0.227587
vn 0.665649 -0.715496 -0.212080
vn 0.092376 -0.050073 -0.994464
vn 0.930956 -0.287331 -0.225303
vn 0.285155 -0.053903 -0.956964
vn -0.109772 -0.047794 0.992807
vn -0.593034 -0.781365 0.194371
vn -0.933678 -0.276496 0.227587
vn -0.304721 -0.056576 0.950760
vn 0.092376 -0.050073 0.994464
vn 0.665649 -0.715496 0.212080
vn 0.285155 -0.053903 0.956964
vn 0.930956 -0.287331 0.225303
vn -0.978591 0.050051 -0.199636
vn -0.222216 -0.282074 -0.933303
vn -0.960173 -0.055797 -0.273777
vn -0.997244 0.074193 0.000636
vn -0.997244 0.074193 -0.000636
vn -0.978591 0.050051 0.199636
vn -0.960173 -0.055797 0.273777
vn -0.222217 -0.282074 0.933303
vn 0.372313 -0.651854 -0.660658
vn 0.990106 -0.093979 -0.104203
vn 0.937478 -0.072018 -0.340511
vn 0.262763 -0.269193 -0.926548
vn 0.372313 -0.651854 0.660658
vn 0.990106 -0.093979 0.104203
vn 0.262763 -0.269193 0.926548
vn 0.937478 -0.072018 0.340511
vn 0.598423 -0.783413 0.167792
vn 0.208552 -0.350113 0.913196
vn 0.904525 -0.357510 0.232426
vn 0.225390 -0.947453 0.227008
vn 0.233878 -0.935866 -0.263545
vn -0.263613 -0.935712 0.234419
vn -0.267734 -0.925183 -0.268989
vn -0.261609 -0.928931 -0.262006
vn 0.310963 -0.915947 -0.253659
vn -0.266010 -0.942242 0.203515
vn -0.909897 -0.344539 0.231043
vn -0.157778 -0.821437 0.548040
vn -0.526674 -0.835872 0.154701
vn -0.249990 -0.340538 0.906388
vn 0.297776 -0.927749 0.224970
vn -0.526674 -0.835872 -0.154701
vn -0.157777 -0.821437 -0.548040
vn -0.249990 -0.340538 -0.906388
vn -0.909897 -0.344539 -0.231043
vn -0.266011 -0.942242 -0.203515
vn 0.297776 -0.927749 -0.224969
vn -0.261609 -0.928931 0.262006
vn 0.310963 -0.915947 0.253659
vn -0.263613 -0.935712 -0.234418
vn 0.208552 -0.350113 -0.913196
vn 0.225390 -0.947453 -0.227008
vn -0.267734 -0.925183 0.268989
vn 0.233878 -0.935866 0.263545
vn 0.598423 -0.783413 -0.167792
vn 0.904525 -0.357510 -0.232426
vn -0.000000 0.000000 1.000000
vn -0.031089 0.200902 0.979118
vn -0.031089 0.200902 -0.979118
vn 0.000000 0.000000 -1.000000
vn 0.990455 -0.133286 0.035120
vn -0.174028 0.052299 0.983351
vn -0.174028 0.052299 -0.983351
vn 0.990455 -0.133286 -0.035120
s 1
g pCube1
usemtl initialShadingGroup
f 128/166/1 127/146/2 65/2/3 66/126/4 76/39/5 75/161/6
f 129/167/7 128/166/1 75/161/6 74/1/8 94/163/9 93/162/10 107/165/11 106/164/12
f 3/5/13 5/3/14 22/4/15 21/152/16
f 4/168/17 3/5/13 16/6/18 15/76/19
f 7/170/20 6/169/21 30/117/22 29/101/23
f 9/171/24 11/7/25 55/8/26 56/79/27
f 11/9/25 10/80/28 24/128/29 23/10/30
f 12/173/31 14/172/32 57/115/33 58/92/34
f 15/11/19 16/144/18 125/68/35 124/149/36
f 17/12/37 18/141/38 120/62/39 119/64/40
f 18/13/38 17/14/37 20/15/41 19/78/42
f 19/78/42 20/106/41 41/25/43 40/20/44
f 21/152/16 22/16/15 56/17/27 55/113/26
f 23/10/30 24/128/29 85/45/45 84/44/46
f 25/96/47 26/18/48 28/19/49 27/81/50
f 26/18/48 25/96/47 43/24/51 42/94/52
f 27/81/50 28/134/49 101/54/53 100/49/54
f 29/101/23 30/117/22 58/92/34 57/115/33
f 31/21/55 33/93/56 40/20/44 39/105/57
f 32/103/58 31/21/55 38/119/59 37/102/60
f 34/23/61 36/22/62 59/116/63 60/91/64
f 35/98/65 34/23/61 44/26/66 43/24/51
f 37/102/60 38/119/59 60/91/64 59/116/63
f 39/105/57 41/25/43 46/122/67 45/104/68
f 42/94/52 44/26/66 61/118/69 62/95/70
f 45/104/68 46/122/67 62/95/70 61/118/69
f 47/154/71 48/133/72 91/48/73 90/132/74
f 48/133/72 47/154/71 50/129/75 49/82/76
f 49/82/76 50/129/75 88/40/77 87/46/78
f 51/27/79 52/137/80 113/60/81 112/143/82
f 52/28/80 51/77/79 54/29/83 53/30/84
f 53/110/84 54/31/83 136/70/85 135/73/86
f 63/32/87 65/2/3 123/66/88 122/145/89
f 65/33/3 64/150/90 67/89/91 66/34/4
f 66/126/4 68/127/92 82/43/93 81/42/94
f 69/156/95 70/35/96 117/63/97 116/58/98
f 70/108/96 69/36/95 72/37/99 71/123/100
f 71/38/100 72/135/99 104/53/101 103/55/102
f 73/153/103 76/39/5 78/41/104 77/130/105
f 77/130/105 79/83/106 86/47/107 88/40/77
f 79/83/106 78/41/104 81/42/94 80/84/108
f 80/84/108 82/43/93 84/44/46 83/85/109
f 83/85/109 85/45/45 87/46/78 86/47/107
f 89/50/110 91/48/73 100/49/54 99/99/111
f 90/132/74 89/50/110 98/52/112 97/51/113
f 92/155/114 95/131/115 97/51/113 96/136/116
f 96/136/116 98/52/112 102/56/117 104/53/101
f 99/99/111 101/54/53 103/55/102 102/56/117
f 105/111/118 108/139/119 111/57/120 110/138/121
f 109/59/122 111/57/120 116/58/98 115/109/123
f 110/138/121 109/59/122 114/61/124 113/60/81
f 112/143/82 114/61/124 118/65/125 120/62/39
f 115/109/123 117/63/97 119/64/40 118/65/125
f 121/67/126 123/66/88 132/71/127 131/112/128
f 122/145/89 121/67/126 126/69/129 125/68/35
f 124/149/36 126/69/129 134/74/130 136/70/85
f 127/146/2 130/147/131 133/72/132 132/71/127
f 131/112/128 133/72/132 135/73/86 134/74/130
f 8/75/133 137/174/134 4/168/17 15/76/19 54/29/83 51/77/79 18/13/38 19/78/42
f 56/79/27 57/115/33 14/172/32 9/171/24
f 24/128/29 10/80/28 140/177/135 13/97/136 25/96/47 27/81/50 48/133/72 49/82/76
f 79/83/106 80/84/108 83/85/109 86/47/107
f 71/123/100 28/86/49 26/87/48 2/124/137
f 23/88/30 68/160/92 67/89/91 55/113/26 11/90/25
f 34/23/61 60/91/64 61/118/69 44/26/66
f 12/173/31 58/92/34 59/116/63 36/22/62
f 8/75/133 19/78/42 40/20/44 33/93/56 138/175/138
f 2/121/137 26/18/48 42/94/52 62/95/70
f 25/96/47 13/97/136 139/176/139 35/98/65 43/24/51
f 98/52/112 89/50/110 99/99/111 102/56/117
f 5/100/14 7/170/20 29/101/23 22/114/15
f 37/102/60 30/117/22 6/169/21 32/103/58
f 45/104/68 38/119/59 31/21/55 39/105/57
f 20/106/41 1/120/140 46/122/67 41/25/43
f 17/107/37 70/108/96 1/125/140 20/15/41
f 114/61/124 109/59/122 115/109/123 118/65/125
f 53/110/84 130/147/131 129/167/7 106/164/12 105/111/118 52/137/80
f 126/69/129 121/67/126 131/112/128 134/74/130
f 67/89/91 64/150/90 21/152/16 55/113/26
f 22/114/15 29/101/23 57/115/33 56/79/27
f 59/116/63 58/92/34 30/117/22 37/102/60
f 61/118/69 60/91/64 38/119/59 45/104/68
f 1/120/140 2/121/137 62/95/70 46/122/67
f 70/108/96 71/123/100 2/124/137 1/125/140
f 78/41/104 76/39/5 66/126/4 81/42/94
f 82/43/93 68/127/92 23/10/30 84/44/46
f 24/128/29 49/82/76 87/46/78 85/45/45
f 50/129/75 73/153/103 77/130/105 88/40/77
f 97/51/113 95/131/115 47/154/71 90/132/74
f 48/133/72 27/81/50 100/49/54 91/48/73
f 28/134/49 71/38/100 103/55/102 101/54/53
f 72/135/99 92/155/114 96/136/116 104/53/101
f 52/137/80 105/111/118 110/138/121 113/60/81
f 111/57/120 108/139/119 69/156/95 116/58/98
f 70/140/96 17/12/37 119/64/40 117/63/97
f 18/141/38 51/142/79 112/143/82 120/62/39
f 16/144/18 63/32/87 122/145/89 125/68/35
f 123/66/88 65/2/3 127/146/2 132/71/127
f 133/72/132 130/147/131 53/110/84 135/73/86
f 54/148/83 15/11/19 124/149/36 136/70/85
f 64/150/90 63/157/87 16/151/18 3/5/13 21/152/16
f 74/1/8 73/153/103 50/129/75 47/154/71 95/131/115 94/163/9
f 108/139/119 107/165/11 93/162/10 92/155/114 72/135/99 69/156/95
f 3/5/13 4/168/17 5/100/14
f 9/171/24 10/80/28 11/7/25
f 31/21/55 32/103/58 33/93/56
f 34/23/61 35/98/65 36/22/62
f 39/105/57 40/20/44 41/25/43
f 42/94/52 43/24/51 44/26/66
f 63/157/87 64/150/90 65/158/3
f 66/159/4 67/89/91 68/160/92
f 73/153/103 74/1/8 75/161/6 76/39/5
f 77/130/105 78/41/104 79/83/106
f 80/84/108 81/42/94 82/43/93
f 83/85/109 84/44/46 85/45/45
f 86/47/107 87/46/78 88/40/77
f 89/50/110 90/132/74 91/48/73
f 92/155/114 93/162/10 94/163/9 95/131/115
f 96/136/116 97/51/113 98/52/112
f 99/99/111 100/49/54 101/54/53
f 102/56/117 103/55/102 104/53/101
f 105/111/118 106/164/12 107/165/11 108/139/119
f 109/59/122 110/138/121 111/57/120
f 112/143/82 113/60/81 114/61/124
f 115/109/123 116/58/98 117/63/97
f 118/65/125 119/64/40 120/62/39
f 121/67/126 122/145/89 123/66/88
f 124/149/36 125/68/35 126/69/129
f 127/146/2 128/166/1 129/167/7 130/147/131
f 131/112/128 132/71/127 133/72/132
f 134/74/130 135/73/86 136/70/85
f 5/100/14 4/168/17 137/174/134 7/170/20
f 6/169/21 138/175/138 33/93/56 32/103/58
f 8/75/133 138/175/138 137/174/134
f 6/169/21 7/170/20 137/174/134 138/175/138
f 12/173/31 36/22/62 35/98/65 139/176/139
f 10/80/28 9/171/24 14/172/32 140/177/135
f 13/97/136 140/177/135 139/176/139
f 12/173/31 139/176/139 140/177/135 14/172/32
